<svg width="512" height="512" viewBox="0 0 512 512" fill="none" xmlns="http://www.w3.org/2000/svg">
<path d="M86.784 405H420.779C431.058 405 441.186 402.525 450.306 397.783C459.426 393.041 467.269 386.171 473.173 377.757C479.076 369.342 482.866 359.629 484.222 349.44C485.577 339.25 484.458 328.884 480.96 319.219L420.117 151.005C409.726 113.623 387.377 80.6734 356.486 57.1956C325.596 33.7179 287.866 21.0045 249.067 21C208.677 20.9994 169.494 34.7725 137.988 60.0455C106.483 85.3184 84.5374 120.58 75.776 160.008L25.6426 322.141C22.6909 331.714 22.0274 341.845 23.7053 351.721C25.3833 361.596 29.3559 370.94 35.3035 379C41.2511 387.06 49.0076 393.612 57.949 398.128C66.8904 402.643 76.7669 404.997 86.784 405Z" fill="#66FF8C"/>
<path d="M151.467 405C156.363 429.113 169.445 450.791 188.496 466.363C207.547 481.934 231.395 490.44 256 490.44C280.605 490.44 304.453 481.934 323.504 466.363C342.555 450.791 355.637 429.113 360.533 405H151.467Z" fill="#2EA14B"/>
<circle cx="384" cy="92" r="77" fill="#2EA14B"/>
</svg>
