<svg width="512" height="512" viewBox="0 0 512 512" fill="none" xmlns="http://www.w3.org/2000/svg">
<path d="M256 44C139.1 44 44 139.1 44 256C44 372.9 139.1 468 256 468C372.9 468 468 372.9 468 256C468 139.1 372.9 44 256 44ZM256 432.667C158.586 432.667 79.3333 353.414 79.3333 256C79.3333 158.586 158.586 79.3333 256 79.3333C353.414 79.3333 432.667 158.586 432.667 256C432.667 353.414 353.414 432.667 256 432.667ZM326.667 291.333C326.667 320.554 302.887 344.333 273.667 344.333V362C273.667 371.77 265.77 379.667 256 379.667C246.23 379.667 238.333 371.77 238.333 362V344.333H233.599C214.748 344.333 197.152 334.193 187.701 317.851C182.807 309.389 185.704 298.594 194.131 293.718C202.594 288.789 213.406 291.722 218.264 300.149C221.426 305.626 227.292 309 233.581 309H273.649C283.401 309 291.316 301.085 291.316 291.333C291.316 284.655 286.528 279.002 279.938 277.907L226.214 268.95C202.505 265.01 185.316 244.693 185.316 220.667C185.316 191.446 209.095 167.667 238.316 167.667V150C238.316 140.248 246.213 132.333 255.982 132.333C265.752 132.333 273.649 140.248 273.649 150V167.667H278.384C297.234 167.667 314.83 177.825 324.282 194.167C329.175 202.611 326.278 213.406 317.851 218.299C309.371 223.193 298.577 220.296 293.718 211.851C290.556 206.392 284.691 203.018 278.401 203.018H238.333C228.581 203.018 220.667 210.95 220.667 220.684C220.667 227.362 225.454 233.016 232.044 234.111L285.768 243.068C309.477 247.008 326.667 267.324 326.667 291.351V291.333Z" fill="#66FF8C"/>
</svg>
