<svg width="512" height="512" viewBox="0 0 512 512" fill="none" xmlns="http://www.w3.org/2000/svg">
<path d="M256 44C139.1 44 44 139.41 44 256.691C54.653 538.472 457.4 538.401 468 256.691C468 139.41 372.9 44 256 44ZM273.667 345.313V363.037C273.578 386.22 238.422 386.202 238.333 363.037V345.313H233.599C214.748 345.313 197.152 335.139 187.701 318.744C182.807 310.254 185.704 299.424 194.131 294.533C202.594 289.588 213.406 292.53 218.264 300.984C221.426 306.479 227.292 309.864 233.581 309.864H273.649C291.263 311.016 299.142 282.391 279.938 278.669L226.214 269.683C164.345 258.18 177.666 167.715 238.316 168.07V150.346C238.422 127.162 273.561 127.18 273.649 150.346V168.07H278.384C297.234 168.07 314.83 178.261 324.282 194.656C329.175 203.128 326.278 213.958 317.851 218.868C309.371 223.777 298.577 220.871 293.718 212.398C290.556 206.922 284.691 203.536 278.401 203.536H238.333C220.72 202.384 212.858 231.009 232.044 234.731L285.768 243.717C347.637 255.22 334.316 345.667 273.667 345.313Z" fill="#66FF8C"/>
</svg>
