<svg width="512" height="512" viewBox="0 0 512 512" fill="none" xmlns="http://www.w3.org/2000/svg">
<path d="M449.892 197.593L324.706 72.4069C286.732 34.531 225.268 34.531 187.295 72.4069L62.1088 197.593C50.4753 209.164 43.9547 224.908 44.0002 241.318V424.662C44.0392 448.594 63.4404 467.979 87.3724 467.998H424.628C448.56 467.979 467.961 448.594 468 424.662V241.318C468.046 224.908 461.525 209.164 449.892 197.593ZM415 414.999H326.667V358.783C326.667 321.531 296.468 291.331 259.216 291.331H252.785C215.533 291.331 185.334 321.531 185.334 358.783V414.999H97.0002V241.318C97.006 238.975 97.9318 236.729 99.5798 235.064L224.766 109.878C242.011 92.6272 269.976 92.6239 287.227 109.87C287.229 109.872 287.233 109.875 287.235 109.878L412.421 235.064C414.068 236.729 414.995 238.975 415.001 241.318V414.999H415Z" fill="#66FF8C"/>
</svg>
