<svg width="512" height="512" viewBox="0 0 512 512" fill="none" xmlns="http://www.w3.org/2000/svg">
<path d="M468 247.167C468 261.812 456.146 273.667 441.5 273.667H388.5C373.854 273.667 362 261.812 362 247.167C362 232.521 373.854 220.667 388.5 220.667H441.5C456.146 220.667 468 232.521 468 247.167ZM441.5 362H388.5C373.854 362 362 373.854 362 388.5C362 403.146 373.854 415 388.5 415H441.5C456.146 415 468 403.146 468 388.5C468 373.854 456.146 362 441.5 362ZM247.167 132.333H441.5C456.146 132.333 468 120.479 468 105.833C468 91.1877 456.146 79.3333 441.5 79.3333H247.167C232.521 79.3333 220.667 91.1877 220.667 105.833C220.667 120.479 232.521 132.333 247.167 132.333ZM282.5 185.333H211.833C197.205 185.333 185.333 197.205 185.333 211.833V220.667H132.333V167.667H141.167C155.795 167.667 167.667 155.795 167.667 141.167V70.5C167.667 55.872 155.795 44 141.167 44H70.5C55.872 44 44 55.872 44 70.5V141.167C44 155.795 55.872 167.667 70.5 167.667H79.3333V362C79.3333 400.973 111.027 432.667 150 432.667H185.333V441.5C185.333 456.128 197.205 468 211.833 468H282.5C297.128 468 309 456.128 309 441.5V370.833C309 356.205 297.128 344.333 282.5 344.333H211.833C197.205 344.333 185.333 356.205 185.333 370.833V379.667H150C140.266 379.667 132.333 371.734 132.333 362V273.667H185.333V282.5C185.333 297.128 197.205 309 211.833 309H282.5C297.128 309 309 297.128 309 282.5V211.833C309 197.205 297.128 185.333 282.5 185.333Z" fill="#66FF8C"/>
</svg>
