<svg width="512" height="512" viewBox="0 0 512 512" fill="none" xmlns="http://www.w3.org/2000/svg">
<path d="M399.577 292.565C364.933 300.039 300.22 312.6 256 312.6C211.78 312.6 147.067 300.056 112.423 292.565C95.675 288.926 78.397 293.042 65.0587 303.837C51.6673 314.649 44 330.709 44 347.934V411.342C44 428.549 51.685 444.626 65.0587 455.439C78.3793 466.198 95.6573 470.261 112.423 466.71C147.067 459.237 211.78 446.676 256 446.676C300.22 446.676 364.933 459.219 399.577 466.71C403.57 467.576 407.58 468 411.573 468C424.328 468 436.783 463.654 446.941 455.456C460.333 444.644 468 428.585 468 411.359V347.952C468 330.744 460.315 314.667 446.941 303.855C433.603 293.078 416.307 288.997 399.577 292.583V292.565ZM101.24 414.875C100.18 415.105 99.2083 414.875 98.3427 414.186C97.4417 413.444 96.9823 412.49 96.9823 411.324V347.917C96.9823 346.751 97.4417 345.796 98.3427 345.054C99.2083 344.365 100.162 344.118 101.24 344.365C138.057 352.316 187.206 361.414 229.5 364.453V394.77C187.206 397.809 138.057 406.907 101.24 414.857V414.875ZM415 411.324C415 412.49 414.541 413.444 413.64 414.186C412.792 414.875 411.838 415.122 410.742 414.875C373.925 406.925 324.776 397.826 282.482 394.787V364.471C324.776 361.432 373.925 352.333 410.742 344.383C411.802 344.136 412.774 344.383 413.64 345.072C414.541 345.814 415 346.768 415 347.934V411.324ZM451.729 116.672L299.972 52.9109C271.635 41.0033 239.146 41.0209 210.844 53.0169L60.1827 116.725C50.3777 120.859 44 130.487 44 141.123C44 151.758 50.3777 161.387 60.1827 165.521L132.333 196.032V247.126C132.333 261.772 144.188 273.626 158.833 273.626C173.479 273.626 185.333 261.772 185.333 247.126V218.452L210.844 229.246C225.048 235.236 240.294 238.239 255.523 238.239C270.681 238.239 285.839 235.271 299.972 229.335L326.667 218.116V247.126C326.667 261.772 338.521 273.626 353.167 273.626C367.812 273.626 379.667 261.772 379.667 247.126V195.838L415 180.998V229.458C415 244.105 426.854 255.959 441.5 255.959C456.146 255.959 468 244.105 468 229.458V141.123C468 123.456 453.92 117.59 451.729 116.672ZM279.444 180.468C264.215 186.881 246.725 186.863 231.479 180.415L138.552 141.123L231.479 101.831C246.725 95.3827 264.215 95.365 279.444 101.778L373.077 141.123L279.444 180.468Z" fill="#66FF8C"/>
</svg>
