<svg width="512" height="512" viewBox="0 0 512 512" fill="none" xmlns="http://www.w3.org/2000/svg">
<path d="M468 141.308C468.018 124.038 457.772 109.117 441.873 103.29L302.283 52.081C273.012 41.3625 240.808 41.2918 211.554 51.9574L70.2505 103.343C54.3165 109.152 44.0177 124.073 44.0353 141.343C44.0353 158.63 54.3518 173.534 70.2858 179.308L210.795 230.269C225.333 235.549 240.614 238.18 255.876 238.18C271.139 238.18 286.402 235.549 300.923 230.269L432.634 182.504V255.856C432.634 265.603 440.548 273.514 450.299 273.514C460.051 273.514 467.965 265.603 467.965 255.856C467.965 255.856 468 141.396 468 141.308ZM82.9164 327.23C119.784 336.465 189.826 356.401 238.317 360.851V433.426C189.826 437.876 119.766 457.829 82.9164 467.047C63.1137 472.009 44 456.964 44 436.551V357.726C44 337.313 63.1137 322.268 82.9164 327.23ZM467.965 357.726V436.551C467.965 456.964 448.851 472.009 429.048 467.047C392.181 457.812 322.138 437.876 273.647 433.426V360.851C322.138 356.401 392.199 336.448 429.048 327.23C448.851 322.268 467.965 337.313 467.965 357.726ZM132.326 303.497V239.381L198.729 263.466C235.367 276.763 276.262 276.781 312.97 263.466L379.621 239.292V303.48C345.103 312.326 300.128 327 255.965 327C211.802 327 166.826 312.326 132.308 303.48L132.326 303.497Z" fill="#66FF8C"/>
</svg>
