<svg width="512" height="512" viewBox="0 0 512 512" fill="none" xmlns="http://www.w3.org/2000/svg">
<path d="M244.745 291.93C157.4 298.725 90.8553 362.244 92.0149 437.715V441.542C92.0149 456.154 105.779 468 122.758 468C242.111 468 331.935 468 389.195 468C406.173 468 419.938 456.154 419.938 441.542V432.722C419.838 354.701 346.265 291.523 255.611 291.609C251.986 291.614 248.362 291.72 244.745 291.93Z" fill="#66FF8C"/>
<path d="M255.975 256C314.517 256 361.975 208.542 361.975 150C361.975 91.4582 314.517 44 255.975 44C197.434 44 149.975 91.4582 149.975 150C150.033 208.518 197.458 255.941 255.975 256Z" fill="#66FF8C"/>
</svg>
