<svg width="512" height="512" viewBox="0 0 512 512" fill="none" xmlns="http://www.w3.org/2000/svg">
<path d="M244.745 291.93C157.4 298.725 90.8553 362.244 92.0149 437.715V441.542C92.0149 456.154 105.779 468 122.758 468C139.736 468 153.5 456.154 153.5 441.542V436.656C152.576 390.317 192.311 350.801 245.729 344.935C302.116 340.123 352.36 375.562 357.951 424.09C358.282 426.959 358.449 429.84 358.452 432.723V441.542C358.452 456.154 372.216 468 389.195 468C406.173 468 419.938 456.154 419.938 441.542V432.722C419.838 354.701 346.265 291.523 255.611 291.609C251.986 291.614 248.362 291.72 244.745 291.93Z" fill="#66FF8C"/>
<path d="M255.975 256C314.517 256 361.975 208.542 361.975 150C361.975 91.4582 314.517 44 255.975 44C197.434 44 149.975 91.4582 149.975 150C150.033 208.518 197.458 255.941 255.975 256ZM255.975 97C285.246 97 308.975 120.729 308.975 150C308.975 179.271 285.246 203 255.975 203C226.704 203 202.975 179.271 202.975 150C202.975 120.729 226.704 97 255.975 97Z" fill="#66FF8C"/>
</svg>
